<svg xmlns="http://www.w3.org/2000/svg" viewBox="0 0 512 512">
  <rect width="512" height="512" rx="112" fill="#1a1a1a"/>
  <rect x="60" y="80" width="392" height="352" rx="28" fill="#d0d0d0"/>
  <!-- Grid holes: 6 rows x 7 cols, circles represent drops -->
  <!-- Row 1 (top) -->
  <circle cx="116" cy="148" r="26" fill="#888"/>
  <circle cx="172" cy="148" r="26" fill="#888"/>
  <circle cx="228" cy="148" r="26" fill="#888"/>
  <circle cx="284" cy="148" r="26" fill="#888"/>
  <circle cx="340" cy="148" r="26" fill="#1a1a1a"/>
  <circle cx="396" cy="148" r="26" fill="#888"/>
  <!-- Row 2 -->
  <circle cx="116" cy="204" r="26" fill="#888"/>
  <circle cx="172" cy="204" r="26" fill="#888"/>
  <circle cx="228" cy="204" r="26" fill="#888"/>
  <circle cx="284" cy="204" r="26" fill="#1a1a1a"/>
  <circle cx="340" cy="204" r="26" fill="#888"/>
  <circle cx="396" cy="204" r="26" fill="#888"/>
  <!-- Row 3 -->
  <circle cx="116" cy="260" r="26" fill="#888"/>
  <circle cx="172" cy="260" r="26" fill="#888"/>
  <circle cx="228" cy="260" r="26" fill="#1a1a1a"/>
  <circle cx="284" cy="260" r="26" fill="#888"/>
  <circle cx="340" cy="260" r="26" fill="#eee"/>
  <circle cx="396" cy="260" r="26" fill="#888"/>
  <!-- Row 4 -->
  <circle cx="116" cy="316" r="26" fill="#888"/>
  <circle cx="172" cy="316" r="26" fill="#1a1a1a"/>
  <circle cx="228" cy="316" r="26" fill="#eee"/>
  <circle cx="284" cy="316" r="26" fill="#1a1a1a"/>
  <circle cx="340" cy="316" r="26" fill="#eee"/>
  <circle cx="396" cy="316" r="26" fill="#888"/>
  <!-- Row 5 (bottom visible) -->
  <circle cx="116" cy="372" r="26" fill="#1a1a1a"/>
  <circle cx="172" cy="372" r="26" fill="#eee"/>
  <circle cx="228" cy="372" r="26" fill="#1a1a1a"/>
  <circle cx="284" cy="372" r="26" fill="#eee"/>
  <circle cx="340" cy="372" r="26" fill="#1a1a1a"/>
  <circle cx="396" cy="372" r="26" fill="#eee"/>
</svg>
